<?xml version="1.0" encoding="utf-8"?>
<!-- Generator: Adobe Illustrator 19.2.0, SVG Export Plug-In . SVG Version: 6.00 Build 0)  -->
<svg version="1.1" id="Layer_1" xmlns="http://www.w3.org/2000/svg" xmlns:xlink="http://www.w3.org/1999/xlink" x="0px" y="0px"
	 viewBox="0 0 960 960" style="enable-background:new 0 0 960 960;" xml:space="preserve">
<style type="text/css">
	.st0{fill:#12A88B;}
	.st1{fill:#137C54;}
	.st2{fill:#E2CBA3;}
	.st3{fill:#333333;}
	.st4{fill:#EFD9AB;}
	.st5{fill:#FFFFFF;}
	.st6{fill:#FC4349;}
</style>
<g>
	<path class="st0" d="M682.1,770.7c0,0-56.8,75.3-199.3,75.3s-196.9-75.3-196.9-75.3v-2.6c0-57.9,46.9-104.8,104.8-104.8h186.5
		c57.9,0,104.8,46.9,104.8,104.8L682.1,770.7L682.1,770.7z"/>
	<path class="st1" d="M482.6,797.1l117.5-131.3c-7.4-1.6-15-2.5-22.8-2.5H390.7c-7.9,0-15.6,0.9-23,2.6L482.6,797.1z"/>
	<polygon class="st2" points="543.5,663.2 482.8,732.5 422,663.2 422,583.1 543.5,583.1 	"/>
	<circle class="st3" cx="477.4" cy="391" r="200.4"/>
	<path class="st4" d="M477.4,616.4L477.4,616.4c-94.1,0-170.3-76.2-170.3-170.3V304.6h340.6v141.5
		C647.7,540.1,571.4,616.4,477.4,616.4z"/>
	<path class="st2" d="M477.4,304.6H307.1v141.5c0,94.1,76.2,170.3,170.3,170.3l0,0L477.4,304.6L477.4,304.6z"/>
	<g>
		<path class="st3" d="M303.1,446.1c0,0,67.7-20.7,108.9-55c41.3-34.3,65.4-90.5,65.4-90.5H303.1V446.1z"/>
		<path class="st3" d="M477.4,300.6c0,0,24.1,56.3,65.4,90.5c41.3,34.3,108.9,55,108.9,55V300.6H477.4z"/>
	</g>
	<path class="st5" d="M364.9,266.9h215.8l28-85.8c1.6-4.9-0.8-10.2-5.5-12.3l-114.4-51c-9.6-4.3-20.5-4.3-30.1,0l-114.6,51
		c-4.6,2.1-7,7.3-5.5,12.2L364.9,266.9z"/>
	<polygon class="st6" points="513.2,192 488.4,192 488.4,167.1 458.9,167.1 458.9,192 434,192 434,221.4 458.9,221.4 458.9,246.2 
		488.4,246.2 488.4,221.4 513.2,221.4 	"/>
	<path class="st5" d="M628.2,786.9H559c-1.9,0-3.5-1.5-3.5-3.5v-17.6c0-1.9,1.5-3.5,3.5-3.5h69.2c1.9,0,3.5,1.5,3.5,3.5v17.6
		C631.6,785.4,630.1,786.9,628.2,786.9z"/>
</g>
</svg>
